<svg xmlns="http://www.w3.org/2000/svg" viewBox="0 0 459.2 113.1"><path d="M60.6,89.7V42.9H72.4V89.6H60.6ZM73.6,11a7.09,7.09,0,0,0-7.1-7.2A7.17,7.17,0,0,0,59.3,11a7.09,7.09,0,0,0,7.2,7.1A7,7,0,0,0,73.6,11Z" transform="translate(-3.8 -3.2)" style="fill:#b01c87"/><path d="M35.4,6.3V53H23.6V6.3ZM22.3,84.9a7.09,7.09,0,0,0,7.1,7.2,7.17,7.17,0,0,0,7.2-7.2,7.15,7.15,0,0,0-14.3,0Z" transform="translate(-3.8 -3.2)" style="fill:#d30c55"/><path d="M89.7,35.4H42.9V23.6H89.6V35.4ZM11,22.3a7.09,7.09,0,0,0-7.2,7.1A7.17,7.17,0,0,0,11,36.6a7.09,7.09,0,0,0,7.1-7.2A7,7,0,0,0,11,22.3Z" transform="translate(-3.8 -3.2)" style="fill:#d40e8c"/><path d="M6.3,60.6H53V72.4H6.3Zm78.6,13a7.09,7.09,0,0,0,7.2-7.1,7.17,7.17,0,0,0-7.2-7.2,7.15,7.15,0,0,0,0,14.3Z" transform="translate(-3.8 -3.2)" style="fill:#ed1944"/><path d="M120.2,89.7V6.3h13.7V89.7ZM273.7,13.2A7.73,7.73,0,0,0,266,5.4a7.81,7.81,0,0,0-7.8,7.8,7.73,7.73,0,0,0,7.8,7.7A7.64,7.64,0,0,0,273.7,13.2Zm-1.1,76.5V30.8H259.3V89.6h13.3ZM197.3,54.2h0c0-16.2-10.3-25-27.4-25-11.9,0-21.3,5.4-22.5,5.9V89.7h13.3v-47a26.26,26.26,0,0,1,9.9-2.2c9,0,13.5,5,13.5,13.6V89.7h13.3V54.2Zm202.6,0c0-15.4-10.8-25.1-24.6-25.1-8,0-11.7,2.4-12,2.5V3.2H350V89.6h13.3v-47a22.48,22.48,0,0,1,9.5-2.2c8.9,0,13.9,4.8,13.9,13.6V89.6H400l-.1-35.4ZM249.3,73c0-9.9-7.1-14.2-14.2-17.3-1.2-.5-5.1-2.1-5.7-2.4-5-2.1-8.5-3.6-8.5-7.6,0-3,2.4-5.8,9.4-5.8,6.8,0,12.7,3.5,13.3,3.8l4.9-9.2c-.4-.2-6.9-5.3-19-5.3-12.9,0-21.8,7-21.8,17.6,0,9.5,6.7,13.7,13.1,16.3.8.3,6.4,2.7,7.7,3.2,5,2,7.5,4.1,7.5,7.4,0,3.6-3.3,6.9-10.5,6.9-7.5,0-13.9-4.2-14.9-4.8l-5,9.2c.7.6,8.9,6.3,21.5,6.3C239.9,91.2,249.3,84.5,249.3,73Zm87.8-37.9V85.4c0,18.1-8.2,30.9-29.4,30.9a68.5,68.5,0,0,1-15.4-1.8V103.6a55.11,55.11,0,0,0,13.7,2c13.2,0,17.8-6.6,17.8-15.6V88.9a27.24,27.24,0,0,1-11.4,2.3c-19,0-29.4-14.2-29.4-31,0-17.7,11-31.1,30.9-31.1A54,54,0,0,1,337.1,35.1Zm-13.2,7.6a24.3,24.3,0,0,0-10.2-2.2c-9.9,0-17.2,7.3-17.2,19.8,0,13.3,8.4,19.6,17.2,19.6,5.2,0,9.8-1.8,10.2-2.2Zm101.2-1h15V30.8H425V13.2H411.9v53c0,16.1,7.2,23.5,23,23.5h5.3V78.6c-10.7,0-15-3.1-15-14.1Z" transform="translate(-3.8 -3.2)" style="fill:#554741"/><path d="M457.5,81.5a5.57,5.57,0,0,0-5.6,5.5h0a5.48,5.48,0,0,0,5.5,5.5A5.57,5.57,0,0,0,463,87h0A5.42,5.42,0,0,0,457.5,81.5Zm4.7,5.5a4.65,4.65,0,1,1-9.3,0h0a4.65,4.65,0,1,1,9.3,0Zm-3.4.6a1.74,1.74,0,0,0,1.2-1.7h0a1.66,1.66,0,0,0-.5-1.2,2.35,2.35,0,0,0-1.7-.6h-2.5v5.6h1.2V87.9h.9l1.2,1.8H460Zm0-1.6c0,.5-.3.8-1,.8h-1.2V85.1h1.2c.6,0,1,.3,1,.9Z" transform="translate(-3.8 -3.2)" style="fill:#554741"/></svg>